<svg width="14" height="21" viewBox="0 0 14 21" fill="none" xmlns="http://www.w3.org/2000/svg">
<path d="M3.07803 19.9276L14 10.3283L3.07803 0.729004C2.78035 0.468227 2.38094 0.325675 1.96768 0.332707C1.55442 0.339739 1.16115 0.495779 0.8744 0.766501C0.587647 1.03722 0.430896 1.40045 0.438628 1.77628C0.446361 2.1521 0.617944 2.50974 0.915632 2.77052L9.51943 10.3283L0.915632 17.8944C0.617944 18.1552 0.446361 18.5128 0.438628 18.8886C0.430896 19.2645 0.587647 19.6277 0.8744 19.8984C1.16115 20.1691 1.55442 20.3252 1.96768 20.3322C2.38094 20.3392 2.78035 20.1967 3.07803 19.9359V19.9276Z" fill="#800080"/>
</svg>
